<svg width="285" height="50" fill="none" xmlns="http://www.w3.org/2000/svg"><path d="M36.09 36.449l4.524 9.048s-5.228 4.322-15.33 4.322C12.113 49.77 0 39.063 0 25.692 0 12.322 12.063 1.415 25.283 1.415c10.103 0 15.33 4.322 15.33 4.322l-4.523 9.048a16.185 16.185 0 00-9.148-2.865c-10.707 0-15.381 7.439-15.381 13.672 0 6.233 4.674 13.722 15.38 13.722a16.186 16.186 0 009.149-2.865zM55.743 7.95a5.932 5.932 0 11-11.863 0 5.932 5.932 0 0111.863 0zM44.685 48.966h10.002V19.913H44.685v29.053zM103.696 7.95a5.93 5.93 0 01-7.088 5.817 5.93 5.93 0 117.088-5.817zM92.638 48.966h10.002V19.913H92.638v29.053zM118.222 34.388c-.02.929.144 1.852.483 2.716a7.026 7.026 0 003.757 3.894 7.033 7.033 0 002.697.578 8.845 8.845 0 004.875-1.357l3.418 6.937s-3.267 2.613-9.751 2.613c-8.394 0-16.085-6.785-16.085-15.28s7.641-15.431 16.085-15.431c6.434 0 9.751 2.714 9.751 2.714l-3.418 6.836a8.846 8.846 0 00-4.875-1.357 7.043 7.043 0 00-4.947 2.132 7.049 7.049 0 00-1.99 5.005zM163.561 39.616h16.085v9.35h-26.741V2.27h10.656v37.346zM197.187 19.108c3.921 0 7.138 1.307 9.5 3.619v-2.815h10.003v29.053h-9.902v-3.317h-.101a12.855 12.855 0 01-9.5 4.121c-8.494 0-14.426-6.836-14.426-15.33 0-8.495 5.932-15.331 14.426-15.331zm3.016 22.167c3.921 0 6.736-2.815 6.736-6.786a6.764 6.764 0 00-6.761-6.76 6.76 6.76 0 00-6.76 6.76c0 3.92 2.714 6.786 6.785 6.786zM242.98 49.77a12.864 12.864 0 01-9.5-4.122h-.101v3.267h-9.902V.309h10.003v22.418c2.362-2.312 5.579-3.619 9.5-3.619 8.494 0 14.426 6.886 14.426 15.381 0 8.495-5.932 15.28-14.426 15.28zm-3.016-22.167a6.632 6.632 0 00-6.25 4.258 6.64 6.64 0 00-.435 2.628c0 3.97 2.814 6.786 6.735 6.786 3.921 0 6.786-2.865 6.786-6.786a6.653 6.653 0 00-.444-2.652 6.636 6.636 0 00-6.342-4.234h-.05zM284.447 21.37l-3.267 6.584s-3.368-1.81-6.434-1.81c-2.212 0-3.116.403-3.116 1.76s2.061 1.96 4.524 2.765c3.82 1.206 8.846 3.317 8.846 9.299 0 8.545-7.791 9.902-13.722 9.902a17.34 17.34 0 01-11.209-3.92l4.071-6.837s3.971 3.318 7.188 3.318c1.408 0 3.117-.151 3.117-2.111 0-1.96-3.167-2.262-6.434-3.971-3.268-1.71-5.881-3.57-5.881-7.942 0-5.931 5.026-9.35 12.666-9.35 3.351.032 6.65.823 9.651 2.313z" fill="#000"/><path d="M58.86 21.371h27.193v27.143L58.86 21.371z" fill="#FC0"/></svg>
