<svg width="285" height="88" fill="none" xmlns="http://www.w3.org/2000/svg"><g clip-path="url(#clip0)"><path d="M34.967 2.112l-12.383 1.85L0 44.007l22.584 39.948 12.383 1.898-24.102-41.846L34.967 2.112zM66.612 2.112l12.383 1.85 22.584 40.044-22.584 39.948-12.383 1.898 24.055-41.846L66.612 2.112z" fill="#0000FA"/><path d="M34.967 2.112L50.766.309v43.697H10.865L34.967 2.112z" fill="#F2F2FE"/><path d="M34.967 85.852l15.799 1.755V44.005H10.865l24.102 41.847z" fill="#D8D8FE"/><path d="M66.612 85.852l-15.846 1.755V44.005h39.9L66.613 85.852z" fill="#B2B2FC"/><path d="M66.612 2.112L50.766.309v43.697h39.9L66.613 2.112z" fill="#E5E5FE"/><path d="M142.619 37.126a34.786 34.786 0 01-8.256.996 15.789 15.789 0 01-5.93-.854c-1.424-.569-2.657-1.613-3.511-2.941-.902-1.423-1.471-3.037-1.803-4.697a40.478 40.478 0 01-.427-6.785c0-5.693.807-9.678 2.42-11.908 1.613-2.23 4.554-3.416 8.824-3.416 2.942.047 5.836.474 8.683 1.233l-.237 4.792c-2.373-.38-4.745-.617-7.117-.664-1.945 0-3.274.284-4.08.806-.807.522-1.424 1.424-1.803 2.847-.38 1.423-.665 3.843-.665 7.26 0 3.415.427 5.787 1.234 7.116.807 1.376 2.42 1.945 4.792 1.945 2.562 0 5.124-.19 7.639-.57l.237 4.84zm5.124-18.74c1.565-1.993 4.127-2.99 7.686-2.99 3.558 0 6.12.997 7.686 2.99 1.566 1.992 2.372 4.791 2.372 8.35 0 7.638-3.369 11.386-10.058 11.386-6.69 0-9.964-3.795-9.964-11.386 0-3.606.76-6.358 2.278-8.35zm4.554 13.236c.57 1.092 1.661 1.566 3.132 1.566s2.657-.522 3.226-1.566c.712-1.565.996-3.226.949-4.934a10.048 10.048 0 00-.949-4.84c-.569-.995-1.661-1.565-3.226-1.565-1.234-.095-2.467.475-3.132 1.566-.664.996-.948 2.657-.948 4.84 0 2.182.284 3.842.948 4.933zm35.821-24.434V37.6h-5.788v-.948c-1.613.854-3.416 1.376-5.266 1.423-3.132 0-5.362-.854-6.548-2.704-1.233-1.85-1.85-4.697-1.85-8.683 0-3.985.712-6.784 2.23-8.635 1.518-1.85 3.7-2.704 6.784-2.704a26.44 26.44 0 013.843.427l.854.237V7.188h5.741zm-6.405 25.194l.664-.143V20.853a21.721 21.721 0 00-4.27-.428c-2.372 0-3.511 2.088-3.511 6.263 0 2.23.238 3.843.807 4.792a2.63 2.63 0 002.562 1.424c1.281 0 2.515-.19 3.748-.522zm17.697-.285c.807.664 1.85.996 2.942.949 2.704 0 5.076-.142 7.211-.285l1.234-.142v4.27a35.9 35.9 0 01-8.967 1.28c-3.274 0-5.694-.948-7.117-2.656-1.423-1.708-2.23-4.555-2.23-8.493 0-7.78 3.131-11.671 9.536-11.671 6.405 0 9.489 3.274 9.489 9.821l-.427 4.08h-12.762c-.095 1.091.284 2.135 1.091 2.847zm6.405-7.307c0-1.708-.285-2.941-.854-3.653-.522-.664-1.518-.996-2.847-.996-1.376 0-2.372.38-2.941 1.091-.57.712-.854 1.945-.949 3.558h7.591zm26.284-3.938V37.6h-5.835V20.852h-2.278v-4.981h2.278v-.949c0-3.131.522-5.266 1.423-6.5.949-1.234 2.562-1.803 4.982-1.803a28.41 28.41 0 013.985.427l.949.142v4.792l-3.226-.142a2.2 2.2 0 00-1.803.712 5.333 5.333 0 00-.427 2.42v.853h5.266v4.982l-5.314.047zm9.679-2.467c1.518-1.992 4.08-2.989 7.639-2.989 3.558 0 6.215.997 7.686 2.99 1.518 1.992 2.372 4.791 2.372 8.35 0 7.638-3.369 11.386-10.058 11.386-6.69 0-9.964-3.795-9.964-11.386 0-3.606.759-6.358 2.325-8.35zm4.507 13.237c.57 1.092 1.661 1.566 3.132 1.566 1.518 0 2.657-.522 3.226-1.566.569-1.09.949-2.704.949-4.934s-.285-3.843-.949-4.84c-.664-.995-1.661-1.517-3.226-1.517-1.566 0-2.562.521-3.132 1.518-.569.996-.949 2.657-.949 4.84 0 2.182.285 3.842.949 4.933zM263.65 37.6V15.87h5.788v2.373a20.813 20.813 0 016.975-2.847v5.836a66.921 66.921 0 00-6.073 1.566l-.854.284V37.6h-5.836zM129.856 71.191v9.916h-5.978V51.55h11.482c6.974 0 10.39 3.274 10.39 9.774 0 3.843-1.423 6.69-4.365 8.492l4.223 11.34h-6.548l-3.416-9.916h-5.788v-.048zm8.777-6.452a5.358 5.358 0 00.997-3.511 5.133 5.133 0 00-1.091-3.369 3.911 3.911 0 00-3.227-1.28h-5.503v9.393h5.551c1.233.143 2.419-.332 3.273-1.233zm12.431-2.99c1.566-1.944 4.128-2.94 7.686-2.94s6.215.996 7.686 2.94c1.518 1.946 2.277 4.793 2.277 8.398 0 7.64-3.273 11.387-9.963 11.387-6.69 0-9.963-3.795-9.963-11.387 0-3.605.806-6.405 2.277-8.397zm4.507 13.333a3.606 3.606 0 003.226 1.565c1.566 0 2.657-.569 3.227-1.565.711-1.566.996-3.226.948-4.934.095-1.709-.237-3.369-.948-4.935-.57-.996-1.661-1.518-3.227-1.518-1.281-.142-2.467.474-3.226 1.518-.569 1.092-.854 2.657-.854 4.934 0 2.278.285 3.891.854 4.935zm23.295 5.978h-5.835V59.33h5.788v1.234c1.518-.997 3.321-1.566 5.124-1.708 2.372 0 4.128.664 5.409 1.992a16.708 16.708 0 017.354-1.992c2.846 0 4.839.806 5.978 2.514 1.138 1.708 1.66 4.27 1.66 7.971v11.766h-5.835V69.483c.094-1.423-.095-2.799-.57-4.127-.474-.902-1.423-1.376-2.419-1.281a13.9 13.9 0 00-3.416.569l-.665.237c.143 2.23.238 3.843.238 4.982v11.244h-5.836V69.91a14.838 14.838 0 00-.57-4.554c-.379-.854-1.233-1.281-2.514-1.281-1.139 0-2.277.19-3.369.569l-.522.19V81.06zm47.255-14.945v9.062c0 .474.095.996.38 1.423.237.38.617.57 1.091.57l-.142 4.412a15.035 15.035 0 01-3.559-.285 7.986 7.986 0 01-2.656-1.233 15.68 15.68 0 01-6.406 1.518c-4.507 0-6.784-2.372-6.784-7.117 0-2.325.664-3.985 1.945-4.934 1.234-.997 3.131-1.566 5.694-1.708l4.649-.38v-1.376a2.612 2.612 0 00-.569-1.85 3.235 3.235 0 00-1.993-.522l-8.113.38-.237-4.08a34.788 34.788 0 018.825-1.282c2.846 0 4.839.665 6.072 1.803 1.234 1.139 1.803 3.037 1.803 5.599zm-9.773 5.788c-1.661.142-2.42.996-2.42 2.562 0 1.566.712 2.42 2.135 2.42a15.05 15.05 0 003.558-.57l.665-.142v-4.65l-3.938.38zm21.16 9.157h-5.836V59.33h5.789v1.234c1.613-1.044 3.51-1.613 5.408-1.708 2.942 0 4.935.854 5.978 2.562 1.139 1.708 1.708 4.365 1.708 7.828V81.06h-5.835V69.436c.094-1.424-.143-2.8-.665-4.128-.427-.854-1.376-1.28-2.657-1.28a8.359 8.359 0 00-3.416.569l-.521.237.047 16.226zm18.171-24.482v-5.93h5.836v5.93h-5.836zm0 24.482V59.33h5.836v21.73h-5.836zm27.898-14.945v9.062c0 .474.095.996.379 1.423.238.38.617.57 1.092.57l-.143 4.412a15.023 15.023 0 01-3.558-.285 8.213 8.213 0 01-2.704-1.233 15.46 15.46 0 01-6.358 1.518c-4.507 0-6.785-2.372-6.785-7.117 0-2.372.665-3.985 1.851-4.934 1.233-.95 3.226-1.566 5.788-1.708l4.65-.38v-1.376a2.618 2.618 0 00-.57-1.85 3.232 3.232 0 00-1.992-.522l-8.114.38-.237-4.08a34.795 34.795 0 018.825-1.282c2.847 0 4.839.665 6.073 1.803 1.139 1.186 1.803 3.037 1.803 5.599zm-9.774 5.788c-1.66.142-2.42.996-2.42 2.562 0 1.566.712 2.42 2.088 2.42a15.842 15.842 0 003.653-.57l.665-.142v-4.65l-3.986.38z" fill="#000"/></g><defs><clipPath id="clip0"><path fill="#fff" transform="translate(0 .31)" d="M0 0h285v87.251H0z"/></clipPath></defs></svg>
