<svg width="145" height="44" fill="none" xmlns="http://www.w3.org/2000/svg"><path d="M17.69.902l-6.271.939L0 22.018l11.419 20.141 6.271.939-12.18-21.08L17.69.902zm16.022 0l6.272.939 11.419 20.177-11.42 20.141-6.27.939 12.18-21.08L33.712.902z" fill="#BBB"/><path d="M17.69.902L25.701 0v22.018H5.511L17.69.902z" fill="#F7F7F7"/><path d="M17.69 43.097l8.011.903V22.018H5.511l12.18 21.08z" fill="#EDEDED"/><path d="M33.712 43.097l-8.01.903V22.018h20.19l-12.18 21.08z" fill="#D9D9D9"/><path d="M33.712.902L25.703 0v22.018h20.19L33.712.902z" fill="#F2F2F2"/><path d="M72.573 18.445a18.709 18.709 0 01-4.205.505 8.407 8.407 0 01-3.01-.433 3.766 3.766 0 01-1.776-1.48 6.948 6.948 0 01-.906-2.382 22.373 22.373 0 01-.217-3.43c0-2.887.398-4.908 1.232-6.027.834-1.12 2.32-1.733 4.495-1.733 1.493.036 2.977.241 4.423.614L72.5 6.497c-1.2-.194-2.41-.302-3.625-.325-.979 0-1.668.145-2.066.397-.399.253-.725.722-.906 1.444-.182.722-.327 1.95-.327 3.682s.218 2.924.617 3.61c.398.685 1.232.974 2.428.974 1.299.006 2.596-.09 3.879-.289l.073 2.455zm2.61-9.493c.797-1.011 2.102-1.516 3.914-1.516 1.813 0 3.118.505 3.916 1.516.797 1.01 1.196 2.418 1.196 4.223 0 3.862-1.704 5.775-5.112 5.775-3.407 0-5.075-1.913-5.075-5.775 0-1.805.4-3.213 1.16-4.223zm2.32 6.713c.29.542.833.794 1.594.794.762 0 1.342-.252 1.632-.794a5.394 5.394 0 00.471-2.49 5.142 5.142 0 00-.471-2.455c-.29-.505-.834-.794-1.632-.794a1.71 1.71 0 00-1.594.794c-.327.506-.472 1.336-.472 2.455s.145 1.949.471 2.49zm18.233-12.38v15.412H92.8v-.469a6.112 6.112 0 01-2.682.722c-1.596 0-2.72-.433-3.335-1.372-.617-.938-.943-2.382-.943-4.403 0-2.022.362-3.43 1.124-4.368.761-.938 1.885-1.371 3.444-1.371.657.02 1.311.092 1.957.216l.435.109V3.285h2.936zm-3.262 12.777l.326-.072v-5.775a13.004 13.004 0 00-2.175-.217c-1.196 0-1.776 1.047-1.776 3.177 0 1.119.108 1.949.398 2.418a1.301 1.301 0 001.305.722c.65 0 1.295-.085 1.922-.253zm8.99-.144c.421.331.95.498 1.486.47 1.377 0 2.574-.073 3.661-.145l.616-.072v2.166a18.522 18.522 0 01-4.567.65c-1.668 0-2.9-.47-3.625-1.336-.725-.867-1.124-2.31-1.124-4.296 0-3.934 1.595-5.92 4.858-5.92 3.262 0 4.821 1.661 4.821 4.982l-.218 2.057h-6.452a1.76 1.76 0 00.544 1.444zm3.262-3.718c0-.866-.145-1.48-.435-1.84-.254-.325-.761-.506-1.45-.506s-1.196.18-1.486.542c-.29.36-.435.974-.471 1.804h3.842zm13.376-1.985v8.482h-2.972v-8.482h-1.16V7.688h1.16V7.22c0-1.588.254-2.67.725-3.285.471-.613 1.305-.902 2.537-.902.682.017 1.361.09 2.03.217l.472.072v2.418l-1.632-.072a1.053 1.053 0 00-.906.361 2.55 2.55 0 00-.217 1.227v.433h2.682v2.527h-2.719zm4.93-1.263c.762-1.011 2.067-1.516 3.879-1.516 1.813 0 3.154.505 3.915 1.516.761 1.01 1.196 2.418 1.196 4.223 0 3.862-1.703 5.775-5.111 5.775-3.407 0-5.075-1.913-5.075-5.775 0-1.805.399-3.213 1.196-4.223zm2.284 6.713c.29.542.834.794 1.595.794s1.341-.252 1.631-.794c.29-.541.472-1.371.472-2.49 0-1.12-.145-1.95-.472-2.455-.326-.505-.833-.758-1.631-.758-.797 0-1.305.253-1.595.758-.29.506-.471 1.336-.471 2.455s.145 1.949.471 2.49zm8.845 3.032V7.688h2.936V8.88a10.69 10.69 0 013.553-1.444v2.96c-1.041.207-2.07.472-3.081.794l-.435.144v7.363h-2.973zM66.084 35.698v5.017h-3.045V25.736h5.836c3.552 0 5.293 1.66 5.293 4.945 0 1.95-.726 3.393-2.212 4.295l2.139 5.74H70.76l-1.74-5.018h-2.936zm4.459-3.248a2.772 2.772 0 00.507-1.769 2.52 2.52 0 00-.544-1.697 1.994 1.994 0 00-1.631-.65h-2.791V33.1h2.827a2.003 2.003 0 001.632-.65zm6.343-1.516c.798-.975 2.103-1.48 3.915-1.48 1.813 0 3.154.505 3.915 1.48.762.974 1.16 2.418 1.16 4.259 0 3.862-1.667 5.775-5.075 5.775-3.407 0-5.075-1.913-5.075-5.775 0-1.841.399-3.249 1.16-4.26zm2.284 6.75a1.81 1.81 0 001.631.794c.798 0 1.341-.29 1.632-.794a5.395 5.395 0 00.47-2.491 5.286 5.286 0 00-.47-2.49c-.29-.506-.834-.759-1.632-.759a1.784 1.784 0 00-1.631.758c-.29.542-.435 1.336-.435 2.49 0 1.156.145 1.95.435 2.492zm11.854 3.032H88.05v-11.01h2.936v.614a5.526 5.526 0 012.61-.866c1.197 0 2.103.325 2.756 1.01a8.437 8.437 0 013.733-1.01c1.45 0 2.465.397 3.045 1.263.58.866.834 2.166.834 4.043v5.956h-2.973v-5.884a5.23 5.23 0 00-.29-2.094 1.227 1.227 0 00-1.232-.65 7.24 7.24 0 00-1.74.29l-.326.108c.072 1.119.109 1.949.109 2.526v5.703H94.54v-5.667a6.87 6.87 0 00-.29-2.31c-.181-.433-.616-.65-1.269-.65a5.64 5.64 0 00-1.703.29l-.254.108v8.23zm24.033-7.58v4.584c-.002.252.061.5.182.721a.643.643 0 00.543.29l-.072 2.237a8.118 8.118 0 01-1.813-.144 4.44 4.44 0 01-1.341-.614 7.676 7.676 0 01-3.262.758c-2.284 0-3.444-1.191-3.444-3.61 0-1.178.326-2.009.979-2.49.616-.505 1.595-.794 2.9-.866l2.356-.18v-.687a1.255 1.255 0 00-.29-.938 1.564 1.564 0 00-1.015-.253l-4.133.18-.108-2.057a17.098 17.098 0 014.495-.65c1.45 0 2.465.325 3.081.903.616.578.942 1.516.942 2.816zm-4.966 2.923c-.834.072-1.232.506-1.232 1.3s.362 1.227 1.087 1.227a6.986 6.986 0 001.813-.289l.326-.072v-2.346l-1.994.18zm10.766 4.657h-2.972v-11.01h2.936v.614a5.638 5.638 0 012.755-.866c1.499 0 2.514.433 3.045 1.3.58.865.87 2.201.87 3.97v5.992h-2.972v-5.884a5.155 5.155 0 00-.327-2.094c-.217-.433-.688-.65-1.341-.65a4.622 4.622 0 00-1.74.29l-.254.108v8.23zm9.244-12.417v-2.996h2.973v2.996h-2.973zm0 12.416V29.706h2.973v11.01h-2.973zm14.174-7.58v4.585c-.002.252.06.5.181.721a.654.654 0 00.544.29l-.073 2.237a8.114 8.114 0 01-1.812-.144 4.625 4.625 0 01-1.378-.614 7.42 7.42 0 01-3.226.758c-2.284 0-3.444-1.191-3.444-3.61 0-1.19.327-2.02.943-2.49.616-.47 1.631-.794 2.936-.866l2.356-.18v-.687a1.255 1.255 0 00-.29-.938 1.563 1.563 0 00-1.015-.253l-4.132.18-.109-2.057a17.104 17.104 0 014.495-.65c1.45 0 2.465.325 3.081.903.617.578.943 1.516.943 2.816zm-4.966 2.924c-.834.072-1.233.506-1.233 1.3s.363 1.227 1.051 1.227a6.981 6.981 0 001.849-.289l.326-.072v-2.346l-1.993.18z" fill="#BBB"/></svg>
