<svg width="45" height="45" fill="none" xmlns="http://www.w3.org/2000/svg"><rect width="45" height="45" rx="5" fill="#ACACAC"/><g clip-path="url(#clip0)" fill="#D9D9D9"><path d="M30.715 17.197a1.912 1.912 0 100-3.824 1.912 1.912 0 000 3.824z"/><path d="M30.198 8H14.802A7.853 7.853 0 007 15.802v15.396A7.853 7.853 0 0014.802 39h15.396A7.853 7.853 0 0038 31.198V15.802A7.853 7.853 0 0030.198 8zm4.444 23.198a4.443 4.443 0 01-4.444 4.444H14.802a4.443 4.443 0 01-4.444-4.444V15.802a4.443 4.443 0 014.444-4.444h15.396a4.443 4.443 0 014.444 4.444v15.396z"/><path d="M22.5 15.492a8.009 8.009 0 100 16.018 8.009 8.009 0 000-16.018zm0 12.606a4.598 4.598 0 110-9.196 4.598 4.598 0 010 9.196z"/></g><defs><clipPath id="clip0"><path fill="#fff" transform="translate(7 8)" d="M0 0h31v31H0z"/></clipPath></defs></svg>
