<svg width="45" height="45" viewBox="0 0 45 45" fill="none" xmlns="http://www.w3.org/2000/svg">
<rect width="45" height="45" rx="5" fill="#ACACAC"/>
<g clip-path="url(#clip0)">
<path d="M30.7151 17.1969C31.7709 17.1969 32.6268 16.341 32.6268 15.2852C32.6268 14.2294 31.7709 13.3735 30.7151 13.3735C29.6594 13.3735 28.8035 14.2294 28.8035 15.2852C28.8035 16.341 29.6594 17.1969 30.7151 17.1969Z" fill="#D9D9D9"/>
<path d="M30.1983 8H14.8017C12.7367 8.01354 10.7602 8.83985 9.30002 10.3C7.83985 11.7602 7.01354 13.7367 7 15.8017L7 31.1983C7.01354 33.2633 7.83985 35.2398 9.30002 36.7C10.7602 38.1602 12.7367 38.9865 14.8017 39H30.1983C32.2633 38.9865 34.2398 38.1602 35.7 36.7C37.1602 35.2398 37.9865 33.2633 38 31.1983V15.8017C37.9865 13.7367 37.1602 11.7602 35.7 10.3C34.2398 8.83985 32.2633 8.01354 30.1983 8V8ZM34.6417 31.1983C34.6417 32.3768 34.1735 33.507 33.3402 34.3402C32.507 35.1735 31.3768 35.6417 30.1983 35.6417H14.8017C13.6232 35.6417 12.493 35.1735 11.6598 34.3402C10.8265 33.507 10.3583 32.3768 10.3583 31.1983V15.8017C10.3583 14.6232 10.8265 13.493 11.6598 12.6598C12.493 11.8265 13.6232 11.3583 14.8017 11.3583H30.1983C31.3768 11.3583 32.507 11.8265 33.3402 12.6598C34.1735 13.493 34.6417 14.6232 34.6417 15.8017V31.1983Z" fill="#D9D9D9"/>
<path d="M22.5 15.4917C20.9161 15.4917 19.3678 15.9614 18.0508 16.8413C16.7339 17.7213 15.7074 18.972 15.1013 20.4354C14.4952 21.8987 14.3366 23.5089 14.6456 25.0624C14.9546 26.6158 15.7173 28.0428 16.8373 29.1628C17.9573 30.2828 19.3842 31.0455 20.9377 31.3545C22.4912 31.6635 24.1014 31.5049 25.5647 30.8988C27.028 30.2926 28.2788 29.2662 29.1587 27.9492C30.0387 26.6323 30.5084 25.0839 30.5084 23.5C30.5084 21.3761 29.6646 19.3391 28.1628 17.8373C26.6609 16.3354 24.624 15.4917 22.5 15.4917ZM22.5 28.0984C21.5906 28.0984 20.7015 27.8287 19.9453 27.3234C19.1891 26.8181 18.5998 26.1 18.2517 25.2597C17.9037 24.4195 17.8126 23.4949 17.9901 22.6029C18.1675 21.711 18.6054 20.8916 19.2485 20.2485C19.8916 19.6054 20.711 19.1675 21.6029 18.9901C22.4949 18.8126 23.4195 18.9037 24.2597 19.2517C25.1 19.5998 25.8181 20.1891 26.3234 20.9453C26.8287 21.7015 27.0984 22.5906 27.0984 23.5C27.0984 24.7196 26.6139 25.8892 25.7516 26.7515C24.8892 27.6139 23.7196 28.0984 22.5 28.0984Z" fill="#D9D9D9"/>
</g>
<defs>
<clipPath id="clip0">
<rect width="31" height="31" fill="white" transform="translate(7 8)"/>
</clipPath>
</defs>
</svg>
