<svg width="45" height="45" fill="none" xmlns="http://www.w3.org/2000/svg"><rect width="45" height="45" rx="5" fill="#ACACAC"/><path d="M36.92 27.942v10.694h-6.2V28.66c0-2.505-.894-4.216-3.14-4.216-1.712 0-2.73 1.152-3.18 2.267-.163.399-.205.952-.205 1.511v10.415h-6.2s.083-16.898 0-18.647h6.2v2.642c-.012.02-.03.041-.04.061h.04v-.06c.825-1.269 2.294-3.081 5.589-3.081 4.079 0 7.137 2.665 7.137 8.392zM11.509 11C9.388 11 8 12.392 8 14.221c0 1.79 1.347 3.223 3.427 3.223h.04c2.163 0 3.508-1.432 3.508-3.223C14.933 12.392 13.63 11 11.509 11zm-3.14 27.636h6.199V19.99H8.369v18.647z" fill="#D9D9D9"/></svg>
