<?xml version="1.0" encoding="utf-8"?>
<!-- Generator: Adobe Illustrator 21.1.0, SVG Export Plug-In . SVG Version: 6.00 Build 0)  -->
<svg version="1.1" id="Layer_1" xmlns="http://www.w3.org/2000/svg" xmlns:xlink="http://www.w3.org/1999/xlink" x="0px" y="0px"
	 viewBox="0 0 500 367.1" style="enable-background:new 0 0 500 367.1;" xml:space="preserve">
<style type="text/css">
	.st0{fill:#F5D942;}
	.st1{fill:#3E225B;}
</style>
<g>
	<path class="st0" d="M312,7.1L162.2,266.7L12.4,7.1H312 M324.4,0H0l162.2,280.9L324.4,0L324.4,0z"/>
	<path class="st0" d="M419.2,69.6L305.4,266.7L191.6,69.6H419.2 M431.6,62.4H179.3l126.2,218.5L431.6,62.4L431.6,62.4z"/>
	<g>
		<path class="st1" d="M63.9,321.5l-19.8,45.1h-6.4l-19.8-45.1h7l16.2,37l16.4-37H63.9z"/>
		<path class="st1" d="M77.2,364.1c-3.6-2-6.5-4.8-8.6-8.3c-2.1-3.5-3.1-7.5-3.1-11.8c0-4.3,1-8.3,3.1-11.8c2.1-3.5,4.9-6.3,8.6-8.3
			c3.6-2,7.7-3,12.3-3c4.5,0,8.6,1,12.2,3c3.6,2,6.5,4.7,8.6,8.2c2.1,3.5,3.1,7.4,3.1,11.8s-1,8.3-3.1,11.8
			c-2.1,3.5-4.9,6.2-8.6,8.2c-3.6,2-7.7,3-12.2,3C85,367.1,80.9,366.1,77.2,364.1z M98.4,359.1c2.6-1.5,4.7-3.6,6.2-6.2
			s2.3-5.6,2.3-8.9c0-3.3-0.8-6.2-2.3-8.9c-1.5-2.6-3.6-4.7-6.2-6.2c-2.6-1.5-5.6-2.3-8.9-2.3c-3.3,0-6.3,0.8-9,2.3
			c-2.7,1.5-4.8,3.6-6.3,6.2c-1.5,2.6-2.3,5.6-2.3,8.9c0,3.3,0.8,6.2,2.3,8.9s3.6,4.7,6.3,6.2c2.7,1.5,5.7,2.3,9,2.3
			C92.8,361.3,95.8,360.6,98.4,359.1z"/>
		<path class="st1" d="M131.6,327.1h-15.5v-5.6h37.3v5.6h-15.5v39.5h-6.4V327.1z"/>
		<path class="st1" d="M207.9,366.6l-9.7-13.8c-1.2,0.1-2.1,0.1-2.8,0.1h-11.1v13.7h-6.4v-45.1h17.6c5.8,0,10.4,1.4,13.8,4.2
			c3.3,2.8,5,6.6,5,11.5c0,3.5-0.9,6.4-2.6,8.9c-1.7,2.4-4.2,4.2-7.3,5.3l10.7,15.1H207.9z M204.5,344.7c2.1-1.8,3.2-4.3,3.2-7.5
			c0-3.3-1.1-5.8-3.2-7.5c-2.1-1.7-5.3-2.6-9.3-2.6h-10.9v20.3h10.9C199.2,347.4,202.3,346.5,204.5,344.7z"/>
		<path class="st1" d="M232.6,364.1c-3.6-2-6.5-4.8-8.6-8.3c-2.1-3.5-3.1-7.5-3.1-11.8c0-4.3,1-8.3,3.1-11.8
			c2.1-3.5,4.9-6.3,8.6-8.3c3.6-2,7.7-3,12.3-3c4.5,0,8.6,1,12.2,3c3.6,2,6.5,4.7,8.6,8.2c2.1,3.5,3.1,7.4,3.1,11.8s-1,8.3-3.1,11.8
			c-2.1,3.5-4.9,6.2-8.6,8.2c-3.6,2-7.7,3-12.2,3C240.4,367.1,236.3,366.1,232.6,364.1z M253.8,359.1c2.6-1.5,4.7-3.6,6.2-6.2
			c1.5-2.6,2.3-5.6,2.3-8.9c0-3.3-0.8-6.2-2.3-8.9c-1.5-2.6-3.6-4.7-6.2-6.2c-2.6-1.5-5.6-2.3-8.9-2.3c-3.3,0-6.3,0.8-9,2.3
			c-2.7,1.5-4.8,3.6-6.3,6.2c-1.5,2.6-2.3,5.6-2.3,8.9c0,3.3,0.8,6.2,2.3,8.9c1.5,2.6,3.6,4.7,6.3,6.2c2.7,1.5,5.7,2.3,9,2.3
			C248.2,361.3,251.2,360.6,253.8,359.1z"/>
		<path class="st1" d="M320.4,366.6l-0.1-32.8l-16.3,27.4h-3l-16.3-27.2v32.7h-6.2v-45.1h5.3l18.8,31.7l18.5-31.7h5.3l0.1,45.1
			H320.4z"/>
		<path class="st1" d="M368.9,355.3h-24l-5,11.3h-6.6l20.4-45.1h6.4l20.5,45.1h-6.8L368.9,355.3z M362.9,317.8l-5.9-5l-5.9,5h-5.6
			l8.6-8.4h5.9l8.6,8.4H362.9z M366.6,350.1l-9.7-22.1l-9.7,22.1H366.6z"/>
		<path class="st1" d="M426.1,321.5v45.1h-5.3l-27-33.6v33.6h-6.4v-45.1h5.3l27,33.6v-33.6H426.1z"/>
		<path class="st1" d="M439.6,321.5h6.4v45.1h-6.4V321.5z"/>
		<path class="st1" d="M488.3,355.3h-24l-5,11.3h-6.6l20.4-45.1h6.4l20.5,45.1h-6.8L488.3,355.3z M486,350.1l-9.7-22.1l-9.7,22.1
			H486z"/>
	</g>
	<path class="st0" d="M305.4,120.4L394,273.8H216.9L305.4,120.4 M305.4,106.1L204.5,280.9h201.9L305.4,106.1L305.4,106.1z"/>
</g>
</svg>
