<svg version="1.1" id="Layer_1" xmlns="http://www.w3.org/2000/svg" x="0" y="0" viewBox="0 0 500 367.1" xml:space="preserve"><style>.st0{fill:#f5d942}.st1{fill:#3e225b}</style><path class="st0" d="M312 7.1L162.2 266.7 12.4 7.1H312M324.4 0H0l162.2 280.9L324.4 0z"/><path class="st0" d="M419.2 69.6L305.4 266.7 191.6 69.6h227.6m12.4-7.2H179.3l126.2 218.5L431.6 62.4z"/><path class="st1" d="M63.9 321.5l-19.8 45.1h-6.4l-19.8-45.1h7l16.2 37 16.4-37h6.4zM77.2 364.1c-3.6-2-6.5-4.8-8.6-8.3-2.1-3.5-3.1-7.5-3.1-11.8 0-4.3 1-8.3 3.1-11.8s4.9-6.3 8.6-8.3c3.6-2 7.7-3 12.3-3 4.5 0 8.6 1 12.2 3 3.6 2 6.5 4.7 8.6 8.2 2.1 3.5 3.1 7.4 3.1 11.8s-1 8.3-3.1 11.8-4.9 6.2-8.6 8.2c-3.6 2-7.7 3-12.2 3-4.5.2-8.6-.8-12.3-2.8zm21.2-5c2.6-1.5 4.7-3.6 6.2-6.2s2.3-5.6 2.3-8.9c0-3.3-.8-6.2-2.3-8.9-1.5-2.6-3.6-4.7-6.2-6.2s-5.6-2.3-8.9-2.3c-3.3 0-6.3.8-9 2.3-2.7 1.5-4.8 3.6-6.3 6.2s-2.3 5.6-2.3 8.9c0 3.3.8 6.2 2.3 8.9s3.6 4.7 6.3 6.2c2.7 1.5 5.7 2.3 9 2.3 3.3-.1 6.3-.8 8.9-2.3zM131.6 327.1h-15.5v-5.6h37.3v5.6h-15.5v39.5h-6.4v-39.5zM207.9 366.6l-9.7-13.8c-1.2.1-2.1.1-2.8.1h-11.1v13.7h-6.4v-45.1h17.6c5.8 0 10.4 1.4 13.8 4.2 3.3 2.8 5 6.6 5 11.5 0 3.5-.9 6.4-2.6 8.9-1.7 2.4-4.2 4.2-7.3 5.3l10.7 15.1h-7.2zm-3.4-21.9c2.1-1.8 3.2-4.3 3.2-7.5 0-3.3-1.1-5.8-3.2-7.5-2.1-1.7-5.3-2.6-9.3-2.6h-10.9v20.3h10.9c4 0 7.1-.9 9.3-2.7zM232.6 364.1c-3.6-2-6.5-4.8-8.6-8.3-2.1-3.5-3.1-7.5-3.1-11.8 0-4.3 1-8.3 3.1-11.8s4.9-6.3 8.6-8.3c3.6-2 7.7-3 12.3-3 4.5 0 8.6 1 12.2 3 3.6 2 6.5 4.7 8.6 8.2 2.1 3.5 3.1 7.4 3.1 11.8s-1 8.3-3.1 11.8-4.9 6.2-8.6 8.2c-3.6 2-7.7 3-12.2 3-4.5.2-8.6-.8-12.3-2.8zm21.2-5c2.6-1.5 4.7-3.6 6.2-6.2s2.3-5.6 2.3-8.9c0-3.3-.8-6.2-2.3-8.9-1.5-2.6-3.6-4.7-6.2-6.2s-5.6-2.3-8.9-2.3c-3.3 0-6.3.8-9 2.3-2.7 1.5-4.8 3.6-6.3 6.2s-2.3 5.6-2.3 8.9c0 3.3.8 6.2 2.3 8.9 1.5 2.6 3.6 4.7 6.3 6.2 2.7 1.5 5.7 2.3 9 2.3 3.3-.1 6.3-.8 8.9-2.3zM320.4 366.6l-.1-32.8-16.3 27.4h-3L284.7 334v32.7h-6.2v-45.1h5.3l18.8 31.7 18.5-31.7h5.3l.1 45.1h-6.1zM368.9 355.3h-24l-5 11.3h-6.6l20.4-45.1h6.4l20.5 45.1h-6.8l-4.9-11.3zm-6-37.5l-5.9-5-5.9 5h-5.6l8.6-8.4h5.9l8.6 8.4h-5.7zm3.7 32.3l-9.7-22.1-9.7 22.1h19.4zM426.1 321.5v45.1h-5.3l-27-33.6v33.6h-6.4v-45.1h5.3l27 33.6v-33.6h6.4zM439.6 321.5h6.4v45.1h-6.4v-45.1zM488.3 355.3h-24l-5 11.3h-6.6l20.4-45.1h6.4l20.5 45.1h-6.8l-4.9-11.3zm-2.3-5.2l-9.7-22.1-9.7 22.1H486z"/><path class="st0" d="M305.4 120.4L394 273.8H216.9l88.5-153.4m0-14.3L204.5 280.9h201.9l-101-174.8z"/></svg>
