<svg version="1.1" id="Layer_1" xmlns="http://www.w3.org/2000/svg" x="0" y="0" viewBox="0 0 500 156.5" xml:space="preserve"><style>.st0{fill:#f5d942}.st1{fill:#3e225b}</style><path class="st0" d="M173.8 4L90.4 148.6 6.9 4h166.9m6.9-4H0l90.4 156.5L180.7 0z"/><path class="st1" d="M257 81.7l-11 25.1h-3.6l-11.1-25.1h3.9l9 20.6 9.1-20.6h3.7zM264.4 105.5c-2-1.1-3.6-2.6-4.8-4.6-1.2-2-1.7-4.1-1.7-6.6s.6-4.6 1.7-6.6c1.2-2 2.8-3.5 4.8-4.6 2-1.1 4.3-1.7 6.9-1.7 2.5 0 4.8.6 6.8 1.7s3.6 2.6 4.8 4.6c1.1 2 1.7 4.1 1.7 6.6 0 2.4-.6 4.6-1.7 6.6-1.1 1.9-2.7 3.5-4.8 4.6-2 1.1-4.3 1.7-6.8 1.7-2.5-.1-4.8-.6-6.9-1.7zm11.9-2.8c1.5-.8 2.6-2 3.5-3.5.8-1.5 1.3-3.1 1.3-4.9 0-1.8-.4-3.5-1.3-4.9-.8-1.5-2-2.6-3.5-3.5-1.5-.8-3.1-1.3-5-1.3-1.8 0-3.5.4-5 1.3-1.5.8-2.7 2-3.5 3.5-.8 1.5-1.3 3.1-1.3 4.9 0 1.8.4 3.5 1.3 4.9.8 1.5 2 2.6 3.5 3.5 1.5.8 3.2 1.3 5 1.3 1.8-.1 3.5-.5 5-1.3zM294.7 84.8h-8.6v-3.1h20.8v3.1h-8.6v22h-3.6v-22zM337.2 106.8l-5.4-7.7c-.7 0-1.2.1-1.6.1H324v7.6h-3.6V81.7h9.8c3.3 0 5.8.8 7.7 2.3 1.9 1.6 2.8 3.7 2.8 6.4 0 1.9-.5 3.6-1.4 5-1 1.4-2.3 2.4-4.1 3l6 8.4h-4zm-1.9-12.1c1.2-1 1.8-2.4 1.8-4.2 0-1.8-.6-3.2-1.8-4.2-1.2-1-2.9-1.5-5.2-1.5H324v11.3h6.1c2.3.1 4-.4 5.2-1.4zM351 105.5c-2-1.1-3.6-2.6-4.8-4.6-1.2-2-1.7-4.1-1.7-6.6s.6-4.6 1.7-6.6c1.2-2 2.8-3.5 4.8-4.6 2-1.1 4.3-1.7 6.9-1.7 2.5 0 4.8.6 6.8 1.7s3.6 2.6 4.8 4.6c1.1 2 1.7 4.1 1.7 6.6 0 2.4-.6 4.6-1.7 6.6-1.1 1.9-2.7 3.5-4.8 4.6-2 1.1-4.3 1.7-6.8 1.7-2.6-.1-4.8-.6-6.9-1.7zm11.8-2.8c1.5-.8 2.6-2 3.5-3.5.8-1.5 1.3-3.1 1.3-4.9 0-1.8-.4-3.5-1.3-4.9-.8-1.5-2-2.6-3.5-3.5-1.5-.8-3.1-1.3-5-1.3s-3.5.4-5 1.3c-1.5.8-2.7 2-3.5 3.5-.8 1.5-1.3 3.1-1.3 4.9 0 1.8.4 3.5 1.3 4.9.8 1.5 2 2.6 3.5 3.5 1.5.8 3.2 1.3 5 1.3s3.6-.5 5-1.3zM400 106.8V88.5l-9.1 15.2h-1.7l-9.1-15.1v18.2h-3.4V81.7h2.9l10.5 17.7 10.3-17.7h2.9v25.1H400zM426.9 100.6h-13.3l-2.8 6.3h-3.7l11.4-25.1h3.6l11.4 25.1h-3.8l-2.8-6.3zm-3.3-20.9l-3.3-2.8-3.3 2.8h-3.1l4.8-4.7h3.3l4.8 4.7h-3.2zm2.1 18l-5.4-12.3-5.4 12.3h10.8zM458.8 81.7v25.1h-2.9l-15.1-18.7v18.7h-3.6V81.7h2.9l15.1 18.7V81.7h3.6zM466.3 81.7h3.6v25.1h-3.6V81.7zM493.5 100.6h-13.3l-2.8 6.3h-3.7L485 81.7h3.6l11.4 25.1h-3.8l-2.7-6.2zm-1.3-2.9l-5.4-12.3-5.4 12.3h10.8z"/><g><path class="st0" d="M233.6 38.8l-63.4 109.8-63.4-109.8h126.8m6.9-4H99.9l70.3 121.8 70.3-121.8z"/><path class="st0" d="M170.2 67.1l49.3 85.5h-98.7l49.4-85.5m0-8L114 156.5h112.5l-56.3-97.4z"/></g></svg>
