<svg width="45" height="45" fill="none" xmlns="http://www.w3.org/2000/svg"><rect width="45" height="45" rx="5" fill="#ACACAC"/><path d="M39.23 15.196a13.605 13.605 0 01-3.915 1.072 6.835 6.835 0 002.998-3.77 13.65 13.65 0 01-4.33 1.654A6.812 6.812 0 0029.007 12a6.818 6.818 0 00-6.64 8.37 19.355 19.355 0 01-14.053-7.123 6.786 6.786 0 00-.923 3.427 6.815 6.815 0 003.032 5.674 6.77 6.77 0 01-3.087-.854v.087a6.82 6.82 0 005.468 6.683 6.794 6.794 0 01-3.078.117 6.825 6.825 0 006.369 4.734 13.682 13.682 0 01-8.469 2.918c-.549 0-1.093-.032-1.625-.096A19.288 19.288 0 0016.45 39c12.54 0 19.398-10.386 19.398-19.394 0-.296-.006-.59-.02-.882a13.824 13.824 0 003.403-3.528z" fill="#D9D9D9"/></svg>
