<?xml version="1.0" encoding="utf-8"?>
<!-- Generator: Adobe Illustrator 21.1.0, SVG Export Plug-In . SVG Version: 6.00 Build 0)  -->
<svg version="1.1" id="Layer_1" xmlns="http://www.w3.org/2000/svg" xmlns:xlink="http://www.w3.org/1999/xlink" x="0px" y="0px"
	 viewBox="0 0 336.9 184.4" style="enable-background:new 0 0 336.9 184.4;" xml:space="preserve">
<style type="text/css">
	.st0{fill:#FFCB01;}
</style>
<g>
	<path class="st0" d="M27.2,157.5l-11.7,26.6h-3.8L0,157.5h4.1l9.6,21.9l9.7-21.9H27.2z"/>
	<path class="st0" d="M40.5,182.6c-2.2-1.2-3.9-2.8-5.1-4.9c-1.2-2.1-1.8-4.4-1.8-7c0-2.6,0.6-4.9,1.8-7c1.2-2.1,2.9-3.7,5.1-4.9
		c2.2-1.2,4.6-1.8,7.3-1.8c2.7,0,5.1,0.6,7.2,1.8c2.2,1.2,3.8,2.8,5.1,4.9c1.2,2.1,1.8,4.4,1.8,7s-0.6,4.9-1.8,7
		c-1.2,2.1-2.9,3.7-5.1,4.9c-2.2,1.2-4.6,1.8-7.2,1.8C45,184.4,42.6,183.8,40.5,182.6z M53,179.7c1.6-0.9,2.8-2.1,3.7-3.7
		c0.9-1.6,1.4-3.3,1.4-5.2c0-1.9-0.5-3.7-1.4-5.2c-0.9-1.6-2.1-2.8-3.7-3.7c-1.6-0.9-3.3-1.3-5.3-1.3c-2,0-3.7,0.4-5.3,1.3
		c-1.6,0.9-2.8,2.1-3.7,3.7c-0.9,1.6-1.4,3.3-1.4,5.2c0,1.9,0.5,3.7,1.4,5.2c0.9,1.6,2.1,2.8,3.7,3.7c1.6,0.9,3.4,1.3,5.3,1.3
		C49.7,181,51.4,180.6,53,179.7z"/>
	<path class="st0" d="M77.5,160.8h-9.1v-3.3h22v3.3h-9.1v23.3h-3.8V160.8z"/>
	<path class="st0" d="M99.1,157.5h11.2c2.8,0,5.3,0.6,7.5,1.7c2.2,1.1,3.9,2.7,5.1,4.7c1.2,2,1.8,4.3,1.8,6.9s-0.6,4.9-1.8,6.9
		c-1.2,2-2.9,3.6-5.1,4.7c-2.2,1.1-4.7,1.7-7.5,1.7H99.1V157.5z M110.1,180.8c2.2,0,4.1-0.4,5.7-1.3c1.6-0.8,2.9-2,3.8-3.5
		s1.3-3.3,1.3-5.2s-0.4-3.7-1.3-5.2s-2.2-2.7-3.8-3.5c-1.6-0.8-3.5-1.3-5.7-1.3H103v20H110.1z"/>
	<path class="st0" d="M135.2,157.5h3.8v26.6h-3.8V157.5z"/>
	<path class="st0" d="M168.5,177.4h-14.2l-2.9,6.7h-3.9l12.1-26.6h3.8l12.1,26.6h-4L168.5,177.4z M167.2,174.4l-5.7-13.1l-5.7,13.1
		H167.2z"/>
	<path class="st0" d="M185.9,183.5c-1.9-0.6-3.3-1.4-4.4-2.4l1.4-3c1,0.9,2.3,1.7,3.9,2.2c1.6,0.6,3.2,0.9,4.9,0.9
		c2.2,0,3.9-0.4,4.9-1.1c1.1-0.7,1.6-1.7,1.6-3c0-0.9-0.3-1.7-0.9-2.2c-0.6-0.6-1.3-1-2.2-1.3c-0.9-0.3-2.1-0.6-3.7-1
		c-2-0.5-3.6-1-4.9-1.4c-1.2-0.5-2.3-1.2-3.2-2.2c-0.9-1-1.3-2.4-1.3-4.1c0-1.4,0.4-2.7,1.1-3.8c0.7-1.1,1.9-2.1,3.4-2.7
		c1.5-0.7,3.4-1,5.7-1c1.6,0,3.1,0.2,4.6,0.6s2.8,1,3.9,1.8l-1.3,3c-1.1-0.7-2.3-1.2-3.6-1.6c-1.3-0.4-2.5-0.6-3.7-0.6
		c-2.2,0-3.8,0.4-4.9,1.2c-1.1,0.8-1.6,1.8-1.6,3c0,0.9,0.3,1.7,0.9,2.2c0.6,0.6,1.4,1,2.3,1.3c0.9,0.3,2.1,0.7,3.7,1
		c2,0.5,3.6,1,4.8,1.4c1.2,0.5,2.3,1.2,3.1,2.2c0.9,1,1.3,2.3,1.3,4c0,1.4-0.4,2.7-1.1,3.8c-0.8,1.2-1.9,2.1-3.5,2.7
		c-1.5,0.7-3.5,1-5.7,1C189.7,184.4,187.8,184.1,185.9,183.5z"/>
	<path class="st0" d="M230.7,159.9c2,1.6,3,3.9,3,6.8s-1,5.2-3,6.8s-4.7,2.5-8.1,2.5H216v8.1h-3.8v-26.6h10.4
		C226,157.5,228.7,158.3,230.7,159.9z M227.9,171.2c1.3-1,1.9-2.5,1.9-4.4s-0.6-3.4-1.9-4.4c-1.3-1-3.1-1.5-5.5-1.5H216v12h6.5
		C224.8,172.7,226.7,172.2,227.9,171.2z"/>
	<path class="st0" d="M249,182.6c-2.2-1.2-3.9-2.8-5.1-4.9c-1.2-2.1-1.8-4.4-1.8-7c0-2.6,0.6-4.9,1.8-7c1.2-2.1,2.9-3.7,5.1-4.9
		c2.2-1.2,4.6-1.8,7.3-1.8c2.7,0,5.1,0.6,7.2,1.8c2.2,1.2,3.8,2.8,5.1,4.9c1.2,2.1,1.8,4.4,1.8,7s-0.6,4.9-1.8,7s-2.9,3.7-5.1,4.9
		c-2.2,1.2-4.6,1.8-7.2,1.8C253.5,184.4,251.1,183.8,249,182.6z M261.5,179.7c1.6-0.9,2.8-2.1,3.7-3.7c0.9-1.6,1.4-3.3,1.4-5.2
		c0-1.9-0.5-3.7-1.4-5.2c-0.9-1.6-2.1-2.8-3.7-3.7c-1.6-0.9-3.3-1.3-5.3-1.3s-3.7,0.4-5.3,1.3c-1.6,0.9-2.8,2.1-3.7,3.7
		c-0.9,1.6-1.4,3.3-1.4,5.2c0,1.9,0.5,3.7,1.4,5.2c0.9,1.6,2.1,2.8,3.7,3.7c1.6,0.9,3.4,1.3,5.3,1.3S259.9,180.6,261.5,179.7z"/>
	<path class="st0" d="M298.5,184.1l-5.7-8.2c-0.7,0.1-1.3,0.1-1.7,0.1h-6.6v8.1h-3.8v-26.6h10.4c3.5,0,6.2,0.8,8.1,2.5s3,3.9,3,6.8
		c0,2.1-0.5,3.8-1.5,5.3c-1,1.4-2.5,2.5-4.3,3.2l6.3,8.9H298.5z M296.5,171.2c1.3-1,1.9-2.5,1.9-4.5s-0.6-3.4-1.9-4.4
		c-1.3-1-3.1-1.5-5.5-1.5h-6.5v12h6.5C293.4,172.8,295.3,172.2,296.5,171.2z"/>
	<path class="st0" d="M329.9,177.4h-14.2l-2.9,6.7h-3.9l12.1-26.6h3.8l12.1,26.6h-4L329.9,177.4z M328.6,174.4l-5.7-13.1l-5.7,13.1
		H328.6z"/>
</g>
<path class="st0" d="M120.9,135L43,0h155.7L120.9,135z M49.1,3.5L120.9,128L192.7,3.5H49.1z"/>
<path class="st0" d="M292,135H136.3L214.2,0L292,135z M142.4,131.5H286L214.2,7L142.4,131.5z"/>
</svg>
