<?xml version="1.0" encoding="utf-8"?>
<!-- Generator: Adobe Illustrator 21.1.0, SVG Export Plug-In . SVG Version: 6.00 Build 0)  -->
<svg version="1.1" id="Layer_1" xmlns="http://www.w3.org/2000/svg" xmlns:xlink="http://www.w3.org/1999/xlink" x="0px" y="0px"
	 viewBox="0 0 466 70" style="enable-background:new 0 0 466 70;" xml:space="preserve">
<style type="text/css">
	.st0{fill:#F5D942;}
	.st1{fill:#3E225B;}
	.st2{fill:#0000FF;}
	.st3{fill:#F2F2FF;}
	.st4{fill:#D9D9FF;}
	.st5{fill:#B3B3FF;}
	.st6{fill:#E6E6FF;}
</style>
<path id="by_2_" d="M261.5,38.6v-4.7H260v13.9l0.5,0.1c1.3,0.1,2.1,0.2,2.7,0.2c1.7,0,2.9-0.4,3.6-1.1c0.8-1.2,1.1-2.5,1-3.9
	c0.1-1.3-0.2-2.7-0.8-3.9c-0.7-0.8-1.7-1.2-2.7-1.1C263.3,38,262.3,38.2,261.5,38.6L261.5,38.6L261.5,38.6z M261.5,46.6v-6.8
	l0.4-0.1c0.7-0.3,1.5-0.4,2.3-0.4c0.7-0.1,1.3,0.2,1.7,0.8c0.4,0.9,0.6,1.9,0.5,2.9c0.1,1-0.1,2-0.6,2.9c-0.6,0.7-1.6,1-2.5,0.9
	C262.9,46.7,262.3,46.7,261.5,46.6L261.5,46.6L261.5,46.6z M271.9,47.8h1.4l-1.3,4.3h1.5l4-14h-1.5l-2.4,8.4H273l-2.4-8.4h-1.5
	L271.9,47.8z"/>
<g>
	<path class="st2" d="M315.3,17.1l-7.4,1.1L294.5,42L308,65.8l7.4,1.1L301,42L315.3,17.1z M334.2,17.1l7.4,1.1L355,42l-13.4,23.8
		l-7.4,1.1L348.5,42L334.2,17.1z"/>
	<path class="st3" d="M315.3,17.1l9.4-1.1v26H301L315.3,17.1z"/>
	<path class="st4" d="M315.3,66.9l9.4,1.1V42H301L315.3,66.9z"/>
	<path class="st5" d="M334.2,66.9l-9.4,1.1V42h23.8L334.2,66.9z"/>
	<path class="st6" d="M334.2,17.1l-9.4-1.1v26h23.8L334.2,17.1z"/>
	<path d="M379.9,37.8c-1.6,0.4-3.3,0.6-4.9,0.6c-1.2,0-2.4-0.1-3.5-0.5c-0.9-0.3-1.6-1-2.1-1.7c-0.5-0.9-0.9-1.8-1.1-2.8
		c-0.2-1.3-0.3-2.7-0.3-4.1c0-3.4,0.5-5.8,1.5-7.1c1-1.3,2.7-2,5.3-2c1.8,0,3.5,0.3,5.2,0.7l-0.1,2.9c-1.4-0.2-2.8-0.4-4.3-0.4
		c-1.2,0-2,0.2-2.4,0.5c-0.5,0.3-0.9,0.9-1.1,1.7c-0.2,0.9-0.4,2.3-0.4,4.4s0.3,3.5,0.7,4.3s1.5,1.2,2.9,1.2c1.5,0,3.1-0.1,4.6-0.3
		L379.9,37.8z M383,26.6c0.9-1.2,2.5-1.8,4.6-1.8s3.7,0.6,4.6,1.8s1.4,2.9,1.4,5c0,4.6-2,6.8-6,6.8s-6-2.3-6-6.8
		C381.6,29.4,382.1,27.8,383,26.6z M385.7,34.5c0.3,0.6,1,0.9,1.9,0.9s1.6-0.3,1.9-0.9c0.4-0.9,0.6-1.9,0.6-2.9c0.1-1-0.1-2-0.6-2.9
		c-0.3-0.6-1-0.9-1.9-0.9c-0.8-0.1-1.5,0.3-1.9,0.9c-0.4,0.6-0.6,1.6-0.6,2.9C385.2,32.9,385.3,33.9,385.7,34.5L385.7,34.5z
		 M407.2,19.9v18.2h-3.5v-0.6c-1,0.5-2.1,0.8-3.2,0.9c-1.9,0-3.2-0.5-3.9-1.6c-0.7-1.1-1.1-2.8-1.1-5.2s0.4-4.1,1.3-5.2
		s2.2-1.6,4.1-1.6c0.8,0,1.5,0.1,2.3,0.3l0.5,0.1v-5.3H407.2z M403.3,35l0.4-0.1v-6.8c-0.8-0.2-1.7-0.2-2.6-0.3
		c-1.4,0-2.1,1.2-2.1,3.8c0,1.3,0.1,2.3,0.5,2.9c0.3,0.6,0.9,0.9,1.5,0.9C401.8,35.3,402.6,35.2,403.3,35z M413.9,34.8
		c0.5,0.4,1.1,0.6,1.7,0.6c1.6,0,3-0.1,4.3-0.2l0.7-0.1v2.6c-1.8,0.5-3.6,0.7-5.4,0.8c-2,0-3.4-0.6-4.3-1.6c-0.9-1-1.3-2.7-1.3-5.1
		c0-4.6,1.9-7,5.7-7s5.7,2,5.7,5.9l-0.3,2.4h-7.6C413.2,33.7,413.5,34.4,413.9,34.8z M417.8,30.4c0-1-0.2-1.7-0.5-2.2
		c-0.3-0.4-0.9-0.6-1.7-0.6c-0.8,0-1.4,0.2-1.7,0.6c-0.3,0.4-0.5,1.2-0.6,2.1H417.8z M433.5,28.1v10H430v-10h-1.4v-3h1.4v-0.6
		c0-1.9,0.3-3.2,0.9-3.9c0.6-0.7,1.5-1.1,3-1.1c0.8,0,1.6,0.1,2.4,0.3l0.6,0.1v2.9l-1.9-0.1c-0.4,0-0.8,0.1-1.1,0.4
		c-0.2,0.5-0.3,1-0.3,1.5v0.5h3.2v3L433.5,28.1z M439.3,26.6c0.9-1.2,2.4-1.8,4.6-1.8c2.1,0,3.7,0.6,4.6,1.8c0.9,1.2,1.4,2.9,1.4,5
		c0,4.6-2,6.8-6,6.8c-4,0-6-2.3-6-6.8C437.9,29.4,438.4,27.8,439.3,26.6L439.3,26.6z M442,34.5c0.3,0.6,1,0.9,1.9,0.9
		s1.6-0.3,1.9-0.9c0.3-0.6,0.6-1.6,0.6-2.9c0-1.3-0.2-2.3-0.6-2.9s-1-0.9-1.9-0.9s-1.5,0.3-1.9,0.9c-0.3,0.6-0.6,1.6-0.6,2.9
		C441.4,32.9,441.6,33.9,442,34.5L442,34.5z M452.4,38.1v-13h3.5v1.4c1.3-0.8,2.7-1.4,4.2-1.7v3.5c-1.2,0.2-2.4,0.6-3.6,0.9
		l-0.5,0.2v8.7H452.4z M372.3,58.2v5.9h-3.6V46.4h6.9c4.2,0,6.2,2,6.2,5.8c0,2.3-0.9,4-2.6,5.1l2.5,6.8h-3.9l-2-5.9H372.3z
		 M377.5,54.3c0.4-0.6,0.6-1.3,0.6-2.1c0-0.7-0.2-1.4-0.6-2c-0.5-0.5-1.2-0.8-1.9-0.8h-3.3v5.6h3.3C376.3,55.2,377,54.9,377.5,54.3z
		 M385,52.6c0.9-1.2,2.5-1.7,4.6-1.7c2.1,0,3.7,0.6,4.6,1.7c0.9,1.2,1.4,2.9,1.4,5c0,4.6-2,6.8-6,6.8c-4,0-6-2.3-6-6.8
		C383.6,55.4,384.1,53.8,385,52.6z M387.7,60.5c0.4,0.6,1.2,1,1.9,0.9c0.9,0,1.6-0.3,1.9-0.9c0.4-0.9,0.6-1.9,0.6-2.9
		c0.1-1-0.1-2-0.6-2.9c-0.3-0.6-1-0.9-1.9-0.9c-0.8-0.1-1.5,0.3-1.9,0.9c-0.3,0.6-0.5,1.6-0.5,2.9S387.3,59.9,387.7,60.5L387.7,60.5
		z M401.6,64.1h-3.5v-13h3.5v0.7c0.9-0.6,2-0.9,3.1-1c1.4,0,2.5,0.4,3.2,1.2c1.4-0.7,2.9-1.1,4.4-1.2c1.7,0,2.9,0.5,3.6,1.5
		c0.7,1,1,2.6,1,4.8v7h-3.5v-7c0.1-0.8-0.1-1.7-0.3-2.5c-0.3-0.5-0.9-0.8-1.5-0.8c-0.7,0-1.4,0.1-2,0.3l-0.4,0.1
		c0.1,1.3,0.1,2.3,0.1,3v6.7h-3.5v-6.7c0-0.9-0.1-1.8-0.3-2.7c-0.2-0.5-0.7-0.8-1.5-0.8c-0.7,0-1.4,0.1-2,0.3l-0.3,0.1
		C401.6,54.4,401.6,64.1,401.6,64.1z M429.9,55.2v5.4c0,0.3,0.1,0.6,0.2,0.9c0.1,0.2,0.4,0.3,0.6,0.3l-0.1,2.6c-0.7,0-1.4,0-2.1-0.2
		c-0.6-0.2-1.1-0.4-1.6-0.7c-1.2,0.6-2.5,0.9-3.8,0.9c-2.7,0-4.1-1.4-4.1-4.3c0-1.4,0.4-2.4,1.2-2.9c0.7-0.6,1.9-0.9,3.4-1l2.8-0.2
		v-0.8c0-0.4-0.1-0.8-0.3-1.1c-0.4-0.2-0.8-0.3-1.2-0.3L420,54l-0.1-2.4c1.7-0.5,3.5-0.7,5.3-0.8c1.7,0,2.9,0.4,3.6,1.1
		S429.9,53.6,429.9,55.2L429.9,55.2z M424.1,58.6c-1,0.1-1.5,0.6-1.5,1.5s0.4,1.5,1.3,1.5c0.7,0,1.4-0.1,2.1-0.3l0.4-0.1v-2.8
		L424.1,58.6z M436.7,64.1h-3.5v-13h3.5v0.7c1-0.6,2.1-1,3.2-1c1.8,0,3,0.5,3.6,1.5c0.7,1,1,2.6,1,4.7v7.1h-3.5v-7
		c0-0.8-0.1-1.7-0.4-2.5c-0.3-0.5-0.8-0.8-1.6-0.8c-0.7,0-1.4,0.1-2,0.3l-0.3,0.1L436.7,64.1z M447.6,49.4v-3.5h3.5v3.5L447.6,49.4z
		 M447.6,64.1v-13h3.5v13H447.6z M464.3,55.2v5.4c0,0.3,0.1,0.6,0.2,0.9c0.1,0.2,0.4,0.3,0.6,0.3l-0.1,2.6c-0.7,0-1.4,0-2.1-0.2
		c-0.6-0.2-1.1-0.4-1.6-0.7c-1.2,0.6-2.5,0.9-3.8,0.9c-2.7,0-4.1-1.4-4.1-4.3c0-1.4,0.4-2.4,1.1-2.9s1.9-0.9,3.5-1l2.8-0.2v-0.8
		c0-0.4-0.1-0.8-0.3-1.1c-0.4-0.2-0.8-0.3-1.2-0.3l-4.9,0.2l-0.1-2.4c1.7-0.5,3.5-0.7,5.3-0.8c1.7,0,2.9,0.4,3.6,1.1
		S464.3,53.6,464.3,55.2L464.3,55.2z M458.5,58.6c-1,0.1-1.5,0.6-1.5,1.5s0.4,1.5,1.2,1.5c0.7,0,1.5-0.1,2.2-0.3l0.4-0.1v-2.8
		L458.5,58.6z"/>
</g>
<path class="st0" d="M77.7,1.8L40.4,66.4L3.1,1.8H77.7 M80.8,0H0l40.4,70L80.8,0L80.8,0z"/>
<g>
	<path class="st0" d="M104.4,17.3L76.1,66.4L47.7,17.3H104.4 M107.5,15.6H44.7L76.1,70L107.5,15.6L107.5,15.6z"/>
	<path class="st0" d="M76.1,30l22,38.2H54L76.1,30 M76.1,26.4L51,70h50.3L76.1,26.4L76.1,26.4z"/>
</g>
<g>
	<path class="st1" d="M114.9,36.5l-4.9,11.3h-1.6l-5-11.3h1.7l4.1,9.2l4.1-9.2H114.9z"/>
	<path class="st1" d="M120.1,47.2c-0.9-0.5-1.6-1.2-2.1-2.1c-0.5-0.9-0.8-1.9-0.8-2.9c0-1.1,0.3-2.1,0.8-2.9
		c0.5-0.9,1.2-1.6,2.1-2.1c0.9-0.5,1.9-0.7,3.1-0.7c1.1,0,2.1,0.2,3.1,0.7c0.9,0.5,1.6,1.2,2.1,2.1c0.5,0.9,0.8,1.9,0.8,3
		c0,1.1-0.3,2.1-0.8,3c-0.5,0.9-1.2,1.6-2.1,2.1c-0.9,0.5-1.9,0.7-3.1,0.7C122.1,47.9,121,47.7,120.1,47.2z M125.4,45.9
		c0.7-0.4,1.2-0.9,1.6-1.6c0.4-0.7,0.6-1.4,0.6-2.2c0-0.8-0.2-1.6-0.6-2.2c-0.4-0.7-0.9-1.2-1.6-1.6c-0.7-0.4-1.4-0.6-2.2-0.6
		c-0.8,0-1.6,0.2-2.2,0.6c-0.7,0.4-1.2,0.9-1.6,1.6c-0.4,0.7-0.6,1.4-0.6,2.2c0,0.8,0.2,1.6,0.6,2.2c0.4,0.7,0.9,1.2,1.6,1.6
		c0.7,0.4,1.4,0.6,2.2,0.6C124,46.5,124.8,46.3,125.4,45.9z"/>
	<path class="st1" d="M135.6,37.9h-3.9v-1.4h9.3v1.4h-3.9v9.9h-1.6V37.9z"/>
	<path class="st1" d="M158.5,47.8l-2.4-3.5c-0.3,0-0.5,0-0.7,0h-2.8v3.4H151V36.5h4.4c1.5,0,2.6,0.3,3.4,1c0.8,0.7,1.3,1.7,1.3,2.9
		c0,0.9-0.2,1.6-0.6,2.2c-0.4,0.6-1,1.1-1.8,1.3l2.7,3.8H158.5z M157.7,42.3c0.5-0.4,0.8-1.1,0.8-1.9c0-0.8-0.3-1.4-0.8-1.9
		c-0.5-0.4-1.3-0.7-2.3-0.7h-2.7V43h2.7C156.4,43,157.1,42.8,157.7,42.3z"/>
	<path class="st1" d="M166.6,47.2c-0.9-0.5-1.6-1.2-2.1-2.1c-0.5-0.9-0.8-1.9-0.8-2.9c0-1.1,0.3-2.1,0.8-2.9
		c0.5-0.9,1.2-1.6,2.1-2.1c0.9-0.5,1.9-0.7,3.1-0.7c1.1,0,2.1,0.2,3.1,0.7c0.9,0.5,1.6,1.2,2.1,2.1c0.5,0.9,0.8,1.9,0.8,3
		c0,1.1-0.3,2.1-0.8,3c-0.5,0.9-1.2,1.6-2.1,2.1c-0.9,0.5-1.9,0.7-3.1,0.7C168.6,47.9,167.6,47.7,166.6,47.2z M171.9,45.9
		c0.7-0.4,1.2-0.9,1.6-1.6c0.4-0.7,0.6-1.4,0.6-2.2c0-0.8-0.2-1.6-0.6-2.2c-0.4-0.7-0.9-1.2-1.6-1.6c-0.7-0.4-1.4-0.6-2.2-0.6
		c-0.8,0-1.6,0.2-2.2,0.6c-0.7,0.4-1.2,0.9-1.6,1.6c-0.4,0.7-0.6,1.4-0.6,2.2c0,0.8,0.2,1.6,0.6,2.2c0.4,0.7,0.9,1.2,1.6,1.6
		c0.7,0.4,1.4,0.6,2.2,0.6C170.5,46.5,171.3,46.3,171.9,45.9z"/>
	<path class="st1" d="M190.5,47.8l0-8.2l-4.1,6.8h-0.7l-4.1-6.8v8.2h-1.5V36.5h1.3l4.7,7.9l4.6-7.9h1.3l0,11.3H190.5z"/>
	<path class="st1" d="M204.5,45h-6l-1.2,2.8h-1.7l5.1-11.3h1.6l5.1,11.3h-1.7L204.5,45z M203,35.6l-1.5-1.2l-1.5,1.2h-1.4l2.1-2.1
		h1.5l2.1,2.1H203z M203.9,43.7l-2.4-5.5l-2.4,5.5H203.9z"/>
	<path class="st1" d="M220.7,36.5v11.3h-1.3l-6.8-8.4v8.4H211V36.5h1.3l6.8,8.4v-8.4H220.7z"/>
	<path class="st1" d="M226,36.5h1.6v11.3H226V36.5z"/>
	<path class="st1" d="M240.1,45h-6l-1.2,2.8h-1.7l5.1-11.3h1.6l5.1,11.3h-1.7L240.1,45z M239.5,43.7l-2.4-5.5l-2.4,5.5H239.5z"/>
</g>
</svg>
