<?xml version="1.0" encoding="utf-8"?>
<!-- Generator: Adobe Illustrator 21.1.0, SVG Export Plug-In . SVG Version: 6.00 Build 0)  -->
<svg version="1.1" id="Layer_1" xmlns="http://www.w3.org/2000/svg" xmlns:xlink="http://www.w3.org/1999/xlink" x="0px" y="0px"
	 viewBox="0 0 500 156.5" style="enable-background:new 0 0 500 156.5;" xml:space="preserve">
<style type="text/css">
	.st0{fill:#F5D942;}
	.st1{fill:#3E225B;}
</style>
<g>
	<path class="st0" d="M173.8,4L90.4,148.6L6.9,4H173.8 M180.7,0H0l90.4,156.5L180.7,0L180.7,0z"/>
	<g>
		<path class="st1" d="M257,81.7l-11,25.1h-3.6l-11.1-25.1h3.9l9,20.6l9.1-20.6H257z"/>
		<path class="st1" d="M264.4,105.5c-2-1.1-3.6-2.6-4.8-4.6c-1.2-2-1.7-4.1-1.7-6.6s0.6-4.6,1.7-6.6c1.2-2,2.8-3.5,4.8-4.6
			c2-1.1,4.3-1.7,6.9-1.7c2.5,0,4.8,0.6,6.8,1.7c2,1.1,3.6,2.6,4.8,4.6c1.1,2,1.7,4.1,1.7,6.6c0,2.4-0.6,4.6-1.7,6.6
			c-1.1,1.9-2.7,3.5-4.8,4.6c-2,1.1-4.3,1.7-6.8,1.7C268.8,107.1,266.5,106.6,264.4,105.5z M276.3,102.7c1.5-0.8,2.6-2,3.5-3.5
			c0.8-1.5,1.3-3.1,1.3-4.9c0-1.8-0.4-3.5-1.3-4.9c-0.8-1.5-2-2.6-3.5-3.5c-1.5-0.8-3.1-1.3-5-1.3c-1.8,0-3.5,0.4-5,1.3
			c-1.5,0.8-2.7,2-3.5,3.5c-0.8,1.5-1.3,3.1-1.3,4.9c0,1.8,0.4,3.5,1.3,4.9c0.8,1.5,2,2.6,3.5,3.5c1.5,0.8,3.2,1.3,5,1.3
			C273.1,103.9,274.8,103.5,276.3,102.7z"/>
		<path class="st1" d="M294.7,84.8h-8.6v-3.1h20.8v3.1h-8.6v22h-3.6V84.8z"/>
		<path class="st1" d="M337.2,106.8l-5.4-7.7c-0.7,0-1.2,0.1-1.6,0.1H324v7.6h-3.6V81.7h9.8c3.3,0,5.8,0.8,7.7,2.3
			c1.9,1.6,2.8,3.7,2.8,6.4c0,1.9-0.5,3.6-1.4,5c-1,1.4-2.3,2.4-4.1,3l6,8.4H337.2z M335.3,94.7c1.2-1,1.8-2.4,1.8-4.2
			c0-1.8-0.6-3.2-1.8-4.2c-1.2-1-2.9-1.5-5.2-1.5H324v11.3h6.1C332.4,96.2,334.1,95.7,335.3,94.7z"/>
		<path class="st1" d="M351,105.5c-2-1.1-3.6-2.6-4.8-4.6c-1.2-2-1.7-4.1-1.7-6.6s0.6-4.6,1.7-6.6c1.2-2,2.8-3.5,4.8-4.6
			c2-1.1,4.3-1.7,6.9-1.7c2.5,0,4.8,0.6,6.8,1.7c2,1.1,3.6,2.6,4.8,4.6c1.1,2,1.7,4.1,1.7,6.6c0,2.4-0.6,4.6-1.7,6.6
			c-1.1,1.9-2.7,3.5-4.8,4.6c-2,1.1-4.3,1.7-6.8,1.7C355.3,107.1,353.1,106.6,351,105.5z M362.8,102.7c1.5-0.8,2.6-2,3.5-3.5
			c0.8-1.5,1.3-3.1,1.3-4.9c0-1.8-0.4-3.5-1.3-4.9c-0.8-1.5-2-2.6-3.5-3.5c-1.5-0.8-3.1-1.3-5-1.3s-3.5,0.4-5,1.3
			c-1.5,0.8-2.7,2-3.5,3.5c-0.8,1.5-1.3,3.1-1.3,4.9c0,1.8,0.4,3.5,1.3,4.9c0.8,1.5,2,2.6,3.5,3.5c1.5,0.8,3.2,1.3,5,1.3
			S361.4,103.5,362.8,102.7z"/>
		<path class="st1" d="M400,106.8l0-18.3l-9.1,15.2h-1.7l-9.1-15.1v18.2h-3.4V81.7h2.9l10.5,17.7l10.3-17.7h2.9l0,25.1H400z"/>
		<path class="st1" d="M426.9,100.6h-13.3l-2.8,6.3h-3.7l11.4-25.1h3.6l11.4,25.1h-3.8L426.9,100.6z M423.6,79.7l-3.3-2.8l-3.3,2.8
			h-3.1l4.8-4.7h3.3l4.8,4.7H423.6z M425.7,97.7l-5.4-12.3l-5.4,12.3H425.7z"/>
		<path class="st1" d="M458.8,81.7v25.1h-2.9l-15.1-18.7v18.7h-3.6V81.7h2.9l15.1,18.7V81.7H458.8z"/>
		<path class="st1" d="M466.3,81.7h3.6v25.1h-3.6V81.7z"/>
		<path class="st1" d="M493.5,100.6h-13.3l-2.8,6.3h-3.7L485,81.7h3.6l11.4,25.1h-3.8L493.5,100.6z M492.2,97.7l-5.4-12.3l-5.4,12.3
			H492.2z"/>
	</g>
	<g>
		<path class="st0" d="M233.6,38.8l-63.4,109.8L106.8,38.8H233.6 M240.5,34.8H99.9l70.3,121.8L240.5,34.8L240.5,34.8z"/>
		<path class="st0" d="M170.2,67.1l49.3,85.5h-98.7L170.2,67.1 M170.2,59.1l-56.2,97.4h112.5L170.2,59.1L170.2,59.1z"/>
	</g>
</g>
</svg>
